<?xml version="1.0" encoding="UTF-8"?>
<svg width="1200pt" height="1200pt" version="1.1" viewBox="0 0 1200 1200" xmlns="http://www.w3.org/2000/svg">
 <path d="m655.46 165.57c-7.332-40.391-11.531-63.324-11.531-63.324-5.5938-30.574-35.016-50.762-65.438-45.238-30.562 5.5781-50.809 34.883-45.238 65.438 0 0 4.0312 22.055 11.102 60.973 28.559-12.254 59.484-18.781 91.441-18.781 6.5938 0 13.137 0.42969 19.664 0.93359z"/>
 <path d="m459.48 805.59c0-4.3203 0.17969-8.4844 0.51562-12.504 0.51562-5.8203 1.5234-11.242 2.7852-16.477 4.8359-20.004 15.215-36.023 32.27-49.812 24.898-20.125 65.316-39.996 107.4-59.387-5.6172-32.242-12.324-70.344-20.172-114.49-57.371 26.102-116.7 53.074-157.93 86.375-26.039 21.035-45.504 45.828-58.43 74.113-12.562 27.48-18.949 58.246-18.949 92.195 0 58.883 22.934 114.25 64.586 155.91 26.953 26.941 62.125 45.66 100.52 54.719-6.2656-35.641-14.305-80.844-24.613-138.27-18.02-19.918-27.98-45.355-27.98-72.379z"/>
 <path d="m553.74 1097.2c4.7148 27.395 28.488 46.738 55.367 46.738 3.168 0 6.3711-0.26563 9.6016-0.81641 30.625-5.2578 51.18-34.344 45.91-64.969 0 0-60.828-353.15-65.316-378.23-0.81641 0.38281-38.051 17.531-66.133 34.598-23.27 14.148-35.461 26.891-37.031 27.996 1.707 9.6953 57.602 334.68 57.602 334.68z"/>
 <path d="m781.02 571.16c47.617-40.992 72-95.184 72-161.48 0-34.02-7.8828-66.758-22.379-96.469-10.598-21.707-24.613-41.832-42.191-59.426-38.773-38.773-94.414-61.02-152.65-61.02-54.48 0-105.72 21.215-144.29 59.762-36.996 37.008-55.645 85.414-55.801 144.36-0.058593 19.055 3.5508 41.184 5.6172 60.469 3.2891 30.91 22.055 122.4 22.055 122.4 6.457-3.6484 13.285-7.3555 20.578-11.172 12.18-6.3477 25.5-12.926 40.836-20.172 13.332-6.2891 42.625-19.512 43.656-19.934 0 0-16.402-91.066-16.402-91.078-1.7148-9.5273-2.7852-18.18-3.3711-26.09-3.9102-52.859 14.746-71.617 22.391-79.246 17.305-17.293 40.297-26.82 64.754-26.82 28.199 0 55.523 10.488 73.094 28.055 12.383 12.383 21.324 27.254 26.496 43.477 3.3359 10.5 5.1367 21.551 5.1367 32.879 0 14.039-1.9062 26.316-5.6992 37.355 9.6133 53.723 17.93 100.54 24.996 140.69 5.0234-3.4023 19.113-14.336 21.176-16.531z"/>
 <path d="m689.02 353.22c-12.238-12.238-32.629-19.824-53.219-19.824-16.934 0-32.867 6.6016-44.867 18.59-2.9766 3.1445-7.668 9.3945-9.3828 12.707-0.75781 2.8086-1.9062 5.3984-2.9297 8.0625 0.14453 0.80469 69.359 397.54 69.828 400.45 2.6406 20.797 2.8789 39.047 1.2344 54.324 0.25391 1.1523 21.145 117 28.715 160.04 10.68-7.2461 20.773-15.504 30.109-24.816 46.262-46.285 64.465-125.26 49.906-216.68v-0.011719c-0.011718-0.011719-69.238-392.7-69.395-392.84z"/>
</svg>
