<svg viewBox="0 0 72 72" xmlns="http://www.w3.org/2000/svg" width="72" height="72">
  <path fill="#333" d="M24.523 49.686a13.1 13.1 0 0 1-5.87 3.657 1 1 0 0 1-1.248-.663L15.94 47.9a1 1 0 0 1 .663-1.25 7.35 7.35 0 0 0 3.57-2.436zm-.93-10.57c-.38-1.925.85-5.322.85-5.322.202-.79.395-1.593.586-2.4.98-4.096 1.99-8.33 4.54-11.201a11.65 11.65 0 0 1 10.948-3.836 15.3 15.3 0 0 1 3.143 1.019 25.5 25.5 0 0 1-7.348 6.28 5.3 5.3 0 0 0-1.507 1.183c-1.9 2.14-2.974 6.315-4.011 10.352a52.2 52.2 0 0 1-3.41 10.27s-3.412-4.422-3.791-6.346m22.632-10.741a14.5 14.5 0 0 0-5.175-4.484l1.04-.71a17.3 17.3 0 0 0 4.276-4.31q.753.503 1.478 1.086a22 22 0 0 1 2.688 2.584 10.07 10.07 0 0 0-3.637 4.27zM31.801 53.859a13.8 13.8 0 0 0-2.552 6.045 1 1 0 0 1-1.157.813l-4.926-.857a1 1 0 0 1-.813-1.157 18.05 18.05 0 0 1 3.468-7.985zm-2.44-6.805a57.5 57.5 0 0 1 8.866-5.755 43.4 43.4 0 0 0 7.806-5.122 5.17 5.17 0 0 0 1.774-3.428 14.4 14.4 0 0 1 4.567-7.797q.417.631.79 1.288a12.21 12.21 0 0 1-2.407 15.102 26.7 26.7 0 0 1-6.527 3.925c-1.128.541-2.192 1.053-3.192 1.618a34.4 34.4 0 0 1-5.146 2.326c-2.14.657-6.53-2.157-6.53-2.157"/>
  <path fill="#999" d="M35.173 22.01a23.5 23.5 0 0 0 6.051-4.747 10.2 10.2 0 0 0 2.577-5.251 1 1 0 0 1 1.157-.814l4.926.858a1 1 0 0 1 .814 1.156c-1.613 9.27-8.914 12.925-15.355 16.15-1.538.77-3.03 1.518-4.4 2.313zm12.902 18.92c-.867 3.438-2.037 6.736-4.337 9.328a11.66 11.66 0 0 1-10.948 3.836 17.4 17.4 0 0 1-7.327-3.601 22.2 22.2 0 0 1-5.32-6.284 12.21 12.21 0 0 1 2.406-15.1 26.3 26.3 0 0 1 6.07-3.84s-.98 3.487-1.714 6.607c-.807 3.426-1.292 5.462-1.292 5.462a5.25 5.25 0 0 0 .621 3.421c1.827 3.222 5.113 5.898 7.956 6.477a4 4 0 0 0 1.505.009s1.043-.066 4.824-2.036c4.482-2.335 7.556-4.278 7.556-4.278m-7.172-.286c.434-1.483.79-3.11 1.155-4.777 1.406-6.424 3.155-14.415 11.288-16.907a1 1 0 0 1 1.249.663l1.465 4.78a1 1 0 0 1-.663 1.25c-3.185.976-4.753 3.776-5.777 8.018z"/>
  <path fill="#444" d="M22.837 50.913q-.081 0-.161-.013c-4.998-.81-5.35-3.483-5.374-3.784a1 1 0 0 1 1.99-.197c.02.091.393 1.47 3.704 2.006a1 1 0 0 1-.16 1.988zM29.556 37a1 1 0 0 1-.506-.137 4.44 4.44 0 0 0-3.651-.447 1 1 0 0 1-.737-1.86 6.48 6.48 0 0 1 5.402.583A1 1 0 0 1 29.556 37m-2.694-7.767a1 1 0 0 1-.502-1.866 8.5 8.5 0 0 1 5.996-.79 1 1 0 1 1-.541 1.926 6.53 6.53 0 0 0-4.461.6 1 1 0 0 1-.493.13m8.019-4.826a1 1 0 0 1-.994-1.118c.323-2.73-1.4-3.124-1.749-3.176a1.005 1.005 0 0 1-.852-1.124.99.99 0 0 1 1.106-.86c1.405.171 3.941 1.519 3.48 5.396a1 1 0 0 1-.992.882m14.41 11.684a7 7 0 0 1-1.35-.12 1 1 0 0 1-.772-1.185.99.99 0 0 1 1.165-.776l.017.004c.39.08 3.78.67 4.442-2.542a1 1 0 0 1 1.959.405 5 5 0 0 1-2.134 3.32 6.1 6.1 0 0 1-3.327.894m-3.592 7.444a6.74 6.74 0 0 1-5.084-2.266 1 1 0 1 1 1.559-1.254 5.02 5.02 0 0 0 5.58 1.155 1 1 0 0 1 .645 1.893 8.3 8.3 0 0 1-2.7.472m-6.641 4.27a1 1 0 0 1-.872-.509c-.599-1.06-3.29-1.19-4.501-1.089a1 1 0 0 1-.173-1.992c.512-.045 5.024-.366 6.416 2.099a1 1 0 0 1-.87 1.491M23.789 57.956a1 1 0 0 1-.738-1.674c.122-.133 3.035-3.244 7.07-2.175a1 1 0 0 1-.513 1.934 5.5 5.5 0 0 0-5.085 1.595 1 1 0 0 1-.735.32"/>
  <path fill="#888" d="M45.26 22.752q-.118 0-.234-.028a1 1 0 0 1-.739-1.207c1.007-4.174-.826-6.122-.904-6.203a1 1 0 0 1 1.41-1.418c.111.11 2.725 2.754 1.44 8.09a1 1 0 0 1-.972.766m-8.105 5.568a1 1 0 0 1-.817-1.573c2.292-3.269 1.767-5.78 1.743-5.885a1 1 0 0 1 1.945-.464c.035.139.792 3.443-2.051 7.497a1 1 0 0 1-.82.426M24.553 39.213a1 1 0 0 1-.169-.014c-4.461-.761-4.035-6.98-4.015-7.244a1 1 0 0 1 1.994.151c-.003.047-.311 4.667 2.357 5.122a1 1 0 0 1-.167 1.985m-1.323 7.136a6 6 0 0 1-1.577-.205 1 1 0 1 1 .547-1.924 3.46 3.46 0 0 0 2.378-.191 1.97 1.97 0 0 0 .862-1.37 1 1 0 0 1 1.955.42 3.96 3.96 0 0 1-1.795 2.669 4.6 4.6 0 0 1-2.37.601m7.769 7.196a1 1 0 0 1-.143-1.989c.91-.134 3.698-.79 4.54-2.018.21-.29.28-.658.187-1.003a1 1 0 0 1 1.95-.444 3.2 3.2 0 0 1-.489 2.58c-1.491 2.17-5.455 2.8-5.902 2.864a1 1 0 0 1-.144.01m16.534-16.543a1 1 0 0 1-.295-.044c-2.801-.867-3.67-5.886-3.76-6.455a1 1 0 1 1 1.974-.313c.287 1.8 1.215 4.498 2.376 4.857a1 1 0 0 1-.295 1.955m2.616-6.867a1 1 0 0 1-.707-.293c-2.484-2.483-1.966-6.802-1.942-6.985a1 1 0 0 1 1.984.252c-.004.035-.414 3.534 1.372 5.32a1 1 0 0 1-.707 1.706"/>
  <g fill="none" stroke="#555" stroke-linecap="round" stroke-width="2">
    <path stroke-miterlimit="10" d="M41.964 17.936a11.2 11.2 0 0 0 2.822-5.753M35.49 22.982a24.8 24.8 0 0 0 6.475-5.046m4.472 25.124a17.7 17.7 0 0 1-3.447 6.535 10.65 10.65 0 0 1-9.999 3.52 16.4 16.4 0 0 1-6.9-3.4 21.2 21.2 0 0 1-5.077-5.999 11.22 11.22 0 0 1 2.21-13.87 20.3 20.3 0 0 1 3.948-2.702m27.932-2.447c-3.772 1.156-5.47 4.594-6.488 8.873m-6.564 6.684c.36-1.325.669-2.735.984-4.175 1.42-6.488 3.03-13.842 10.603-16.162M24.692 36.82a6.23 6.23 0 0 0 .672 4.431 16.2 16.2 0 0 0 3.885 4.577 11.4 11.4 0 0 0 4.742 2.387 5.3 5.3 0 0 0 3.676-.649M49.712 13.04c-1.526 8.773-8.587 12.308-14.817 15.427-1.327.664-2.622 1.313-3.843 1.994"/>
    <path stroke-linejoin="round" d="M46.579 20.244q.324.24.641.496M24.657 36.813q.387-1.312.758-2.767c1.215-4.727 2.042-9.96 4.906-13.186a10.65 10.65 0 0 1 9.999-3.52q.889.183 1.746.481M16.9 47.61a8.5 8.5 0 0 0 4.467-3.295m3.08 3.917a12.25 12.25 0 0 1-6.082 4.158m17.487-29.616a6.3 6.3 0 0 0-1.791 1.405c-2.06 2.32-3.164 6.614-4.232 10.766a60 60 0 0 1-2.741 8.77m18.916-17.23a16 16 0 0 0-1.942-1.86q-.56-.45-1.134-.827m-11.927 23.24a64 64 0 0 1 7.724-4.864 44 44 0 0 0 7.988-5.254 6.3 6.3 0 0 0 1.92-3.346M23.342 58.88a17.17 17.17 0 0 1 3.86-8.258m4.26 2.079a14.9 14.9 0 0 0-3.194 7.037m23.847-33.314q.093.157.182.315a11.22 11.22 0 0 1-2.21 13.869c-2.547 2.33-6.405 3.642-9.537 5.41a47 47 0 0 0-2.87 1.573m9.54-26.85q.978.788 1.853 1.692"/>
  </g>
</svg>
